<mxfile host="Electron" agent="Mozilla/5.0 (Windows NT 10.0; Win64; x64) AppleWebKit/537.36 (KHTML, like Gecko) draw.io/26.0.9 Chrome/128.0.6613.186 Electron/32.2.5 Safari/537.36" version="26.0.9">
  <diagram name="Page-1" id="2YBvvXClWsGukQMizWep">
    <mxGraphModel dx="1750" dy="820" grid="1" gridSize="10" guides="1" tooltips="1" connect="1" arrows="1" fold="1" page="1" pageScale="1" pageWidth="850" pageHeight="1100" math="0" shadow="0">
      <root>
        <mxCell id="0" />
        <mxCell id="1" parent="0" />
        <mxCell id="aM9ryv3xv72pqoxQDRHE-1" value=":Application" style="shape=umlLifeline;perimeter=lifelinePerimeter;whiteSpace=wrap;html=1;container=0;dropTarget=0;collapsible=0;recursiveResize=0;outlineConnect=0;portConstraint=eastwest;newEdgeStyle={&quot;edgeStyle&quot;:&quot;elbowEdgeStyle&quot;,&quot;elbow&quot;:&quot;vertical&quot;,&quot;curved&quot;:0,&quot;rounded&quot;:0};" parent="1" vertex="1">
          <mxGeometry x="310" y="40" width="100" height="560" as="geometry" />
        </mxCell>
        <mxCell id="aM9ryv3xv72pqoxQDRHE-5" value=":Base de données relationnelle" style="shape=umlLifeline;perimeter=lifelinePerimeter;whiteSpace=wrap;html=1;container=0;dropTarget=0;collapsible=0;recursiveResize=0;outlineConnect=0;portConstraint=eastwest;newEdgeStyle={&quot;edgeStyle&quot;:&quot;elbowEdgeStyle&quot;,&quot;elbow&quot;:&quot;vertical&quot;,&quot;curved&quot;:0,&quot;rounded&quot;:0};" parent="1" vertex="1">
          <mxGeometry x="590" y="40" width="100" height="560" as="geometry" />
        </mxCell>
        <mxCell id="aM9ryv3xv72pqoxQDRHE-6" value="" style="html=1;points=[];perimeter=orthogonalPerimeter;outlineConnect=0;targetShapes=umlLifeline;portConstraint=eastwest;newEdgeStyle={&quot;edgeStyle&quot;:&quot;elbowEdgeStyle&quot;,&quot;elbow&quot;:&quot;vertical&quot;,&quot;curved&quot;:0,&quot;rounded&quot;:0};" parent="aM9ryv3xv72pqoxQDRHE-5" vertex="1">
          <mxGeometry x="45" y="80" width="10" height="60" as="geometry" />
        </mxCell>
        <mxCell id="RJLVJxDMmFZqVFZCEAZF-26" value="" style="html=1;points=[];perimeter=orthogonalPerimeter;outlineConnect=0;targetShapes=umlLifeline;portConstraint=eastwest;newEdgeStyle={&quot;edgeStyle&quot;:&quot;elbowEdgeStyle&quot;,&quot;elbow&quot;:&quot;vertical&quot;,&quot;curved&quot;:0,&quot;rounded&quot;:0};" parent="aM9ryv3xv72pqoxQDRHE-5" vertex="1">
          <mxGeometry x="45" y="430" width="10" height="60" as="geometry" />
        </mxCell>
        <mxCell id="aM9ryv3xv72pqoxQDRHE-9" value="" style="html=1;verticalAlign=bottom;endArrow=block;edgeStyle=elbowEdgeStyle;elbow=vertical;curved=0;rounded=0;" parent="1" target="aM9ryv3xv72pqoxQDRHE-2" edge="1">
          <mxGeometry x="0.003" relative="1" as="geometry">
            <mxPoint x="260" y="120" as="sourcePoint" />
            <Array as="points">
              <mxPoint x="90" y="120" />
            </Array>
            <mxPoint x="350" y="120" as="targetPoint" />
            <mxPoint as="offset" />
          </mxGeometry>
        </mxCell>
        <mxCell id="RJLVJxDMmFZqVFZCEAZF-1" value="Utilisateur&lt;div&gt;&lt;br&gt;&lt;/div&gt;" style="shape=umlActor;verticalLabelPosition=bottom;verticalAlign=top;html=1;outlineConnect=0;" parent="1" vertex="1">
          <mxGeometry x="70" y="30" width="30" height="50" as="geometry" />
        </mxCell>
        <mxCell id="RJLVJxDMmFZqVFZCEAZF-2" value="" style="html=1;points=[];perimeter=orthogonalPerimeter;outlineConnect=0;targetShapes=umlLifeline;portConstraint=eastwest;newEdgeStyle={&quot;edgeStyle&quot;:&quot;elbowEdgeStyle&quot;,&quot;elbow&quot;:&quot;vertical&quot;,&quot;curved&quot;:0,&quot;rounded&quot;:0};" parent="1" vertex="1">
          <mxGeometry x="80" y="100" width="10" height="500" as="geometry" />
        </mxCell>
        <mxCell id="RJLVJxDMmFZqVFZCEAZF-3" value="" style="html=1;verticalAlign=bottom;endArrow=block;edgeStyle=elbowEdgeStyle;elbow=vertical;curved=0;rounded=0;" parent="1" source="aM9ryv3xv72pqoxQDRHE-6" target="aM9ryv3xv72pqoxQDRHE-2" edge="1">
          <mxGeometry relative="1" as="geometry">
            <mxPoint x="635" y="160" as="sourcePoint" />
            <Array as="points">
              <mxPoint x="580" y="170" />
            </Array>
            <mxPoint x="360" y="160" as="targetPoint" />
          </mxGeometry>
        </mxCell>
        <mxCell id="RJLVJxDMmFZqVFZCEAZF-12" value="Résultat de la demande" style="edgeLabel;html=1;align=center;verticalAlign=middle;resizable=0;points=[];fontSize=12;" parent="RJLVJxDMmFZqVFZCEAZF-3" vertex="1" connectable="0">
          <mxGeometry x="0.1852" y="-2" relative="1" as="geometry">
            <mxPoint x="15" y="-8" as="offset" />
          </mxGeometry>
        </mxCell>
        <mxCell id="aM9ryv3xv72pqoxQDRHE-2" value="" style="html=1;points=[];perimeter=orthogonalPerimeter;outlineConnect=0;targetShapes=umlLifeline;portConstraint=eastwest;newEdgeStyle={&quot;edgeStyle&quot;:&quot;elbowEdgeStyle&quot;,&quot;elbow&quot;:&quot;vertical&quot;,&quot;curved&quot;:0,&quot;rounded&quot;:0};" parent="1" vertex="1">
          <mxGeometry x="355" y="110" width="10" height="460" as="geometry" />
        </mxCell>
        <mxCell id="RJLVJxDMmFZqVFZCEAZF-6" value="Saisi critères de recherche" style="text;html=1;align=center;verticalAlign=middle;resizable=0;points=[];autosize=1;strokeColor=none;fillColor=none;" parent="1" vertex="1">
          <mxGeometry x="130" y="100" width="170" height="30" as="geometry" />
        </mxCell>
        <mxCell id="RJLVJxDMmFZqVFZCEAZF-9" value="" style="html=1;verticalAlign=bottom;endArrow=block;edgeStyle=elbowEdgeStyle;elbow=vertical;curved=0;rounded=0;" parent="1" edge="1">
          <mxGeometry x="0.003" relative="1" as="geometry">
            <mxPoint x="535" y="140" as="sourcePoint" />
            <Array as="points">
              <mxPoint x="365" y="140" />
            </Array>
            <mxPoint x="635" y="140" as="targetPoint" />
            <mxPoint as="offset" />
          </mxGeometry>
        </mxCell>
        <mxCell id="RJLVJxDMmFZqVFZCEAZF-10" value="Requête des résultats correspondants" style="text;html=1;align=center;verticalAlign=middle;resizable=0;points=[];autosize=1;strokeColor=none;fillColor=none;" parent="1" vertex="1">
          <mxGeometry x="375" y="118" width="230" height="30" as="geometry" />
        </mxCell>
        <mxCell id="RJLVJxDMmFZqVFZCEAZF-13" value="" style="shape=folder;fontStyle=1;spacingTop=10;tabWidth=40;tabHeight=20;tabPosition=left;html=1;whiteSpace=wrap;gradientColor=none;fillColor=none;" parent="1" vertex="1">
          <mxGeometry x="-100" y="160" width="510" height="120" as="geometry" />
        </mxCell>
        <mxCell id="RJLVJxDMmFZqVFZCEAZF-14" value="Alt" style="text;html=1;align=center;verticalAlign=middle;resizable=0;points=[];autosize=1;strokeColor=none;fillColor=none;" parent="1" vertex="1">
          <mxGeometry x="-100" y="160" width="40" height="30" as="geometry" />
        </mxCell>
        <mxCell id="RJLVJxDMmFZqVFZCEAZF-15" value="" style="html=1;verticalAlign=bottom;endArrow=block;edgeStyle=elbowEdgeStyle;elbow=vertical;curved=0;rounded=0;" parent="1" edge="1">
          <mxGeometry relative="1" as="geometry">
            <mxPoint x="355" y="200" as="sourcePoint" />
            <Array as="points">
              <mxPoint x="300" y="200" />
            </Array>
            <mxPoint x="90" y="200" as="targetPoint" />
          </mxGeometry>
        </mxCell>
        <mxCell id="RJLVJxDMmFZqVFZCEAZF-16" value="Affichage covoiturage" style="edgeLabel;html=1;align=center;verticalAlign=middle;resizable=0;points=[];fontSize=12;" parent="RJLVJxDMmFZqVFZCEAZF-15" vertex="1" connectable="0">
          <mxGeometry x="0.1852" y="-2" relative="1" as="geometry">
            <mxPoint x="15" y="-8" as="offset" />
          </mxGeometry>
        </mxCell>
        <mxCell id="RJLVJxDMmFZqVFZCEAZF-17" value="" style="html=1;verticalAlign=bottom;endArrow=block;edgeStyle=elbowEdgeStyle;elbow=vertical;curved=0;rounded=0;" parent="1" edge="1">
          <mxGeometry relative="1" as="geometry">
            <mxPoint x="355" y="269" as="sourcePoint" />
            <Array as="points">
              <mxPoint x="300" y="269" />
            </Array>
            <mxPoint x="90" y="269" as="targetPoint" />
          </mxGeometry>
        </mxCell>
        <mxCell id="RJLVJxDMmFZqVFZCEAZF-18" value="Affichage aucun covoiturage trouvé +&lt;div&gt;&amp;nbsp;demande de modification de date&lt;/div&gt;" style="edgeLabel;html=1;align=center;verticalAlign=middle;resizable=0;points=[];fontSize=12;" parent="RJLVJxDMmFZqVFZCEAZF-17" vertex="1" connectable="0">
          <mxGeometry x="0.1852" y="-2" relative="1" as="geometry">
            <mxPoint x="22" y="-18" as="offset" />
          </mxGeometry>
        </mxCell>
        <mxCell id="RJLVJxDMmFZqVFZCEAZF-19" value="" style="html=1;verticalAlign=bottom;endArrow=none;edgeStyle=elbowEdgeStyle;elbow=vertical;curved=0;rounded=0;entryX=0;entryY=0;entryDx=0;entryDy=70;entryPerimeter=0;dashed=1;startFill=0;exitX=0;exitY=0;exitDx=510;exitDy=70;exitPerimeter=0;" parent="1" source="RJLVJxDMmFZqVFZCEAZF-13" target="RJLVJxDMmFZqVFZCEAZF-13" edge="1">
          <mxGeometry relative="1" as="geometry">
            <mxPoint x="320" y="230" as="sourcePoint" />
            <Array as="points">
              <mxPoint x="300" y="230" />
            </Array>
            <mxPoint x="85" y="230" as="targetPoint" />
          </mxGeometry>
        </mxCell>
        <mxCell id="RJLVJxDMmFZqVFZCEAZF-24" value="" style="html=1;verticalAlign=bottom;endArrow=block;edgeStyle=elbowEdgeStyle;elbow=vertical;curved=0;rounded=0;" parent="1" source="RJLVJxDMmFZqVFZCEAZF-36" edge="1">
          <mxGeometry x="0.003" relative="1" as="geometry">
            <mxPoint x="260" y="310" as="sourcePoint" />
            <Array as="points">
              <mxPoint x="90" y="310" />
            </Array>
            <mxPoint x="355" y="310" as="targetPoint" />
            <mxPoint as="offset" />
          </mxGeometry>
        </mxCell>
        <mxCell id="RJLVJxDMmFZqVFZCEAZF-31" value="" style="html=1;verticalAlign=bottom;endArrow=block;edgeStyle=elbowEdgeStyle;elbow=vertical;curved=0;rounded=0;" parent="1" edge="1">
          <mxGeometry relative="1" as="geometry">
            <mxPoint x="355" y="430" as="sourcePoint" />
            <Array as="points">
              <mxPoint x="300" y="430" />
            </Array>
            <mxPoint x="90" y="430" as="targetPoint" />
          </mxGeometry>
        </mxCell>
        <mxCell id="RJLVJxDMmFZqVFZCEAZF-32" value="Demande de confirmation participation en JS" style="edgeLabel;html=1;align=center;verticalAlign=middle;resizable=0;points=[];fontSize=12;" parent="RJLVJxDMmFZqVFZCEAZF-31" vertex="1" connectable="0">
          <mxGeometry x="0.1852" y="-2" relative="1" as="geometry">
            <mxPoint x="22" y="-8" as="offset" />
          </mxGeometry>
        </mxCell>
        <mxCell id="RJLVJxDMmFZqVFZCEAZF-41" value="Si covoiturages existants" style="text;html=1;align=center;verticalAlign=middle;resizable=0;points=[];autosize=1;strokeColor=none;fillColor=none;" parent="1" vertex="1">
          <mxGeometry x="-105" y="190" width="160" height="30" as="geometry" />
        </mxCell>
        <mxCell id="RJLVJxDMmFZqVFZCEAZF-42" value="Si pas de covoiturages existants" style="text;html=1;align=center;verticalAlign=middle;resizable=0;points=[];autosize=1;strokeColor=none;fillColor=none;" parent="1" vertex="1">
          <mxGeometry x="-110" y="240" width="200" height="30" as="geometry" />
        </mxCell>
        <mxCell id="RJLVJxDMmFZqVFZCEAZF-45" value="" style="html=1;verticalAlign=bottom;endArrow=block;edgeStyle=elbowEdgeStyle;elbow=vertical;curved=0;rounded=0;" parent="1" edge="1">
          <mxGeometry relative="1" as="geometry">
            <mxPoint x="355" y="340" as="sourcePoint" />
            <Array as="points">
              <mxPoint x="300" y="340" />
            </Array>
            <mxPoint x="90" y="340" as="targetPoint" />
          </mxGeometry>
        </mxCell>
        <mxCell id="RJLVJxDMmFZqVFZCEAZF-46" value="Affichage détail" style="edgeLabel;html=1;align=center;verticalAlign=middle;resizable=0;points=[];fontSize=12;" parent="RJLVJxDMmFZqVFZCEAZF-45" vertex="1" connectable="0">
          <mxGeometry x="0.1852" y="-2" relative="1" as="geometry">
            <mxPoint x="15" y="-8" as="offset" />
          </mxGeometry>
        </mxCell>
        <mxCell id="RJLVJxDMmFZqVFZCEAZF-36" value="Sélectionne un résultat" style="text;html=1;align=center;verticalAlign=middle;resizable=0;points=[];autosize=1;strokeColor=none;fillColor=none;" parent="1" vertex="1">
          <mxGeometry x="140" y="290" width="150" height="30" as="geometry" />
        </mxCell>
        <mxCell id="RJLVJxDMmFZqVFZCEAZF-49" value="" style="html=1;verticalAlign=bottom;endArrow=block;edgeStyle=elbowEdgeStyle;elbow=vertical;curved=0;rounded=0;" parent="1" edge="1">
          <mxGeometry x="0.003" relative="1" as="geometry">
            <mxPoint x="140" y="400" as="sourcePoint" />
            <Array as="points">
              <mxPoint x="90" y="400" />
            </Array>
            <mxPoint x="355" y="400" as="targetPoint" />
            <mxPoint as="offset" />
          </mxGeometry>
        </mxCell>
        <mxCell id="RJLVJxDMmFZqVFZCEAZF-50" value="&lt;div&gt;Clique sur participer&lt;/div&gt;" style="edgeLabel;html=1;align=center;verticalAlign=middle;resizable=0;points=[];fontSize=12;" parent="1" vertex="1" connectable="0">
          <mxGeometry x="220" y="380" as="geometry" />
        </mxCell>
        <mxCell id="RJLVJxDMmFZqVFZCEAZF-51" value="" style="html=1;verticalAlign=bottom;endArrow=block;edgeStyle=elbowEdgeStyle;elbow=vertical;curved=0;rounded=0;" parent="1" edge="1">
          <mxGeometry x="0.003" relative="1" as="geometry">
            <mxPoint x="140" y="460" as="sourcePoint" />
            <Array as="points">
              <mxPoint x="90" y="460" />
            </Array>
            <mxPoint x="355" y="460" as="targetPoint" />
            <mxPoint as="offset" />
          </mxGeometry>
        </mxCell>
        <mxCell id="RJLVJxDMmFZqVFZCEAZF-52" value="Valide sa participation" style="edgeLabel;html=1;align=center;verticalAlign=middle;resizable=0;points=[];fontSize=12;" parent="1" vertex="1" connectable="0">
          <mxGeometry x="215" y="450" as="geometry" />
        </mxCell>
        <mxCell id="RJLVJxDMmFZqVFZCEAZF-54" value="" style="html=1;verticalAlign=bottom;endArrow=block;edgeStyle=elbowEdgeStyle;elbow=vertical;curved=0;rounded=0;" parent="1" edge="1">
          <mxGeometry x="0.003" relative="1" as="geometry">
            <mxPoint x="535" y="490" as="sourcePoint" />
            <Array as="points">
              <mxPoint x="365" y="490" />
            </Array>
            <mxPoint x="635" y="490" as="targetPoint" />
            <mxPoint as="offset" />
          </mxGeometry>
        </mxCell>
        <mxCell id="RJLVJxDMmFZqVFZCEAZF-55" value="Enregistre le lien entre le covoiturage et l&#39;utilisateur" style="text;html=1;align=center;verticalAlign=middle;resizable=0;points=[];autosize=1;strokeColor=none;fillColor=none;" parent="1" vertex="1">
          <mxGeometry x="355" y="460" width="290" height="30" as="geometry" />
        </mxCell>
        <mxCell id="RJLVJxDMmFZqVFZCEAZF-56" value="" style="html=1;verticalAlign=bottom;endArrow=block;edgeStyle=elbowEdgeStyle;elbow=vertical;curved=0;rounded=0;" parent="1" edge="1">
          <mxGeometry relative="1" as="geometry">
            <mxPoint x="635" y="520" as="sourcePoint" />
            <Array as="points">
              <mxPoint x="580" y="520" />
            </Array>
            <mxPoint x="365" y="520" as="targetPoint" />
          </mxGeometry>
        </mxCell>
        <mxCell id="RJLVJxDMmFZqVFZCEAZF-57" value="Conrfirme l&#39;enregistrement" style="edgeLabel;html=1;align=center;verticalAlign=middle;resizable=0;points=[];fontSize=12;" parent="RJLVJxDMmFZqVFZCEAZF-56" vertex="1" connectable="0">
          <mxGeometry x="0.1852" y="-2" relative="1" as="geometry">
            <mxPoint x="15" y="-8" as="offset" />
          </mxGeometry>
        </mxCell>
        <mxCell id="RJLVJxDMmFZqVFZCEAZF-58" value="" style="html=1;verticalAlign=bottom;endArrow=block;edgeStyle=elbowEdgeStyle;elbow=vertical;curved=0;rounded=0;" parent="1" edge="1">
          <mxGeometry relative="1" as="geometry">
            <mxPoint x="355" y="560" as="sourcePoint" />
            <Array as="points">
              <mxPoint x="300" y="560" />
            </Array>
            <mxPoint x="90" y="560" as="targetPoint" />
          </mxGeometry>
        </mxCell>
        <mxCell id="RJLVJxDMmFZqVFZCEAZF-59" value="Valide et redirige vers la page /utilisateur" style="edgeLabel;html=1;align=center;verticalAlign=middle;resizable=0;points=[];fontSize=12;" parent="RJLVJxDMmFZqVFZCEAZF-58" vertex="1" connectable="0">
          <mxGeometry x="0.1852" y="-2" relative="1" as="geometry">
            <mxPoint x="22" y="-8" as="offset" />
          </mxGeometry>
        </mxCell>
        <mxCell id="4Cw-wHZQrq8_B1ba8mWh-1" value="" style="shape=folder;fontStyle=1;spacingTop=10;tabWidth=40;tabHeight=30;tabPosition=left;html=1;whiteSpace=wrap;fillColor=none;" vertex="1" parent="1">
          <mxGeometry x="-100" y="340" width="760" height="240" as="geometry" />
        </mxCell>
        <mxCell id="4Cw-wHZQrq8_B1ba8mWh-2" value="opt" style="text;html=1;align=center;verticalAlign=middle;resizable=0;points=[];autosize=1;strokeColor=none;fillColor=none;" vertex="1" parent="1">
          <mxGeometry x="-100" y="340" width="40" height="30" as="geometry" />
        </mxCell>
        <mxCell id="4Cw-wHZQrq8_B1ba8mWh-3" value="Pour les utilisateurs &quot;passager&quot;&lt;div&gt;&amp;nbsp;seulement&lt;/div&gt;" style="text;html=1;align=center;verticalAlign=middle;resizable=0;points=[];autosize=1;strokeColor=none;fillColor=none;" vertex="1" parent="1">
          <mxGeometry x="-105" y="380" width="190" height="40" as="geometry" />
        </mxCell>
      </root>
    </mxGraphModel>
  </diagram>
</mxfile>
